
<svg width="300" height="600" viewBox="0 0 300 600" fill="none" xmlns="http://www.w3.org/2000/svg">
<path fill-rule="evenodd" clip-rule="evenodd" d="M150 0C122.386 0 100 22.3858 100 50C100 77.6142 122.386 100 150 100C177.614 100 200 77.6142 200 50C200 22.3858 177.614 0 150 0ZM110 120C104.477 120 100 124.477 100 130V250H80C68.9543 250 60 258.954 60 270V450H100V580C100 591.046 108.954 600 120 600H180C191.046 600 200 591.046 200 580V450H240V270C240 258.954 231.046 250 220 250H200V130C200 124.477 195.523 120 190 120H110Z" fill="white"/>
</svg>
